@startuml
!theme reddress-darkorange
skinparam class {
  attributeIconSize 8
}
namespace aliasmethods {
    class Code << (S,Aquamarine) >> {
        + AsInt() int

    }
    class Properties << (S,Aquamarine) >> {
        + Copy() Properties

    }
    class StringList << (S,Aquamarine) >> {
        + Add(s string) StringList

    }
    class aliasmethods.Code << (T, #FF7700) >>  {
    }
    class aliasmethods.Properties << (T, #FF7700) >>  {
    }
    class aliasmethods.StringList << (T, #FF7700) >>  {
    }
}



namespace connectionlabels {
    interface AbstractInterface  {
        - interfaceFunction() bool

    }
    class ImplementsAbstractInterface << (S,Aquamarine) >> {
        + PublicUse AbstractInterface

        - interfaceFunction() bool

    }
    class connectionlabels.AliasOfInt << (T, #FF7700) >>  {
    }
}
"connectionlabels.AliasOfInt" *-- "extends""connectionlabels.ImplementsAbstractInterface"

"connectionlabels.AbstractInterface" <|-- "implements""connectionlabels.ImplementsAbstractInterface"

"connectionlabels.ImplementsAbstractInterface""uses" o-- "connectionlabels.AbstractInterface"

namespace parenthesizedtypedeclarations {
    interface Bar  {
        + Bar()

    }
    interface Foo  {
        + Foo()

    }
    class defaultFoo << (S,Aquamarine) >> {
    }
    class parenthesizedtypedeclarations.defaultFoo << (S,Aquamarine) >> {
        + Foo()

    }
}

"parenthesizedtypedeclarations.Foo" <|-- "implements""parenthesizedtypedeclarations.defaultFoo"


namespace renderingoptions {
    class Test << (S,Aquamarine) >> {
        - integer int

        - function()

    }
}



namespace subfolder {
    interface TestInterfaceAsField  {
    }
    interface test2  {
        - test()

    }
}
"subfolder.TestInterfaceAsField" *-- "extends""subfolder.test2"



namespace subfolder2 {
    class Subfolder2 << (S,Aquamarine) >> {
        + SubfolderFunction(b bool, i int) bool

    }
}

"subfolder3.SubfolderInterface" <|-- "implements""subfolder2.Subfolder2"


namespace subfolder3 {
    interface SubfolderInterface  {
        + SubfolderFunction( bool,  int) bool

    }
}



namespace testingsupport {
    class test << (S,Aquamarine) >> {
        - field int
        - field2 TestComplicatedAlias
        - foo parenthesizedtypedeclarations.Foo

        - test()

    }
    class testingsupport.TestComplicatedAlias << (T, #FF7700) >>  {
    }
    class testingsupport.myInt << (T, #FF7700) >>  {
    }
    class "func(strings.Builder) bool" as funcstringsBuilderbool {
        'This class was created so that we can correctly have an alias pointing to this name. Since it contains dots that can break namespaces
    }
}

"subfolder.test2" <|-- "implements""testingsupport.test"

"testingsupport.test""uses" o-- "parenthesizedtypedeclarations.Foo"
"testingsupport.test""uses" o-- "testingsupport.TestComplicatedAlias"

"__builtin__.int" #.. "alias of""aliasmethods.Code"
"__builtin__.int" #.. "alias of""connectionlabels.AliasOfInt"
"__builtin__.int" #.. "alias of""testingsupport.myInt"
"aliasmethods.[]string" #.. "alias of""aliasmethods.StringList"
"aliasmethods.map[string]interface{}" #.. "alias of""aliasmethods.Properties"
"testingsupport.funcstringsBuilderbool" #.. "alias of""testingsupport.TestComplicatedAlias"
@enduml
